<svg width="43" height="13" viewBox="0 0 43 13" fill="none" xmlns="http://www.w3.org/2000/svg">
<path d="M5.706 0.0360292H8.01L9.468 4.26603L10.944 0.0360292H13.23L11.034 5.85003L12.654 9.91803L16.272 2.86102e-05H18.972L13.86 12.78H11.718L9.468 7.41603L7.236 12.78H5.094L0 2.86102e-05H2.664L6.3 9.91803L7.884 5.85003L5.706 0.0360292ZM29.6952 10.602V12.78H20.8212V2.86102e-05H29.5332V2.17803H23.3052V5.25603H28.6872V7.27203H23.3052V10.602H29.6952ZM42.4678 9.48603C42.4678 10.206 42.2818 10.812 41.9098 11.304C41.5378 11.784 41.0338 12.15 40.3978 12.402C39.7738 12.654 39.0898 12.78 38.3458 12.78H32.1718V2.86102e-05H39.0118C39.6118 2.86102e-05 40.1278 0.162029 40.5598 0.486029C41.0038 0.798029 41.3398 1.20603 41.5678 1.71003C41.8078 2.20203 41.9278 2.71803 41.9278 3.25803C41.9278 3.87003 41.7718 4.45203 41.4598 5.00403C41.1478 5.55603 40.6918 5.96403 40.0918 6.22803C40.8238 6.44403 41.3998 6.83403 41.8198 7.39803C42.2518 7.96203 42.4678 8.65803 42.4678 9.48603ZM39.9658 9.01803C39.9658 8.69403 39.8998 8.40603 39.7678 8.15403C39.6358 7.89003 39.4558 7.68603 39.2278 7.54203C39.0118 7.38603 38.7598 7.30803 38.4718 7.30803H34.6558V10.674H38.3458C38.6458 10.674 38.9158 10.602 39.1558 10.458C39.4078 10.302 39.6058 10.098 39.7498 9.84603C39.8938 9.59403 39.9658 9.31803 39.9658 9.01803ZM34.6558 2.12403V5.34603H37.9678C38.2438 5.34603 38.4958 5.28003 38.7238 5.14803C38.9518 5.01603 39.1318 4.83003 39.2638 4.59003C39.4078 4.35003 39.4798 4.06203 39.4798 3.72603C39.4798 3.40203 39.4138 3.12003 39.2818 2.88003C39.1618 2.64003 38.9938 2.45403 38.7778 2.32203C38.5738 2.19003 38.3398 2.12403 38.0758 2.12403H34.6558Z" fill="#4D5AE5"/>
</svg>
